<svg version="1.1" xmlns="http://www.w3.org/2000/svg" png-width="100" png-height="40" png-kernel="nearest" png-fit="contain" png-position="top"><defs><linearGradient id="green" x1="0%" y1="0%" x2="0%" y2="100%"><stop offset="0%" style="stop-color: rgba(112, 168, 0, 0.2);"></stop><stop offset="80%" style="stop-color: rgba(240, 185, 11, 0.2);"></stop><stop offset="100%" style="stop-color: rgba(255, 255, 255, 0.2);"></stop></linearGradient></defs><defs><linearGradient id="red" x1="0%" y1="0%" x2="0%" y2="100%"><stop offset="0%" style="stop-color: rgba(234, 0, 112, 0.2);"></stop><stop offset="80%" style="stop-color: rgba(240, 185, 11, 0.2);"></stop><stop offset="100%" style="stop-color: rgba(255, 255, 255, 0.2);"></stop></linearGradient></defs><defs><linearGradient id="linear" x1="0%" y1="0%" x2="0%" y2="100%"><stop offset="0%" style="stop-color: rgba(240, 185, 10, .65);" /><stop offset="80%" style="stop-color: rgba(240, 185, 10, .05);" /><stop offset="100%" style="stop-color: rgba(255, 255, 255, 0);" /></linearGradient></defs><g><path d="M0 18 L4 1 L9 4 L13 10 L17 15 L22 15 L26 23 L30 19 L35 18 L39 29 L43 24 L48 18 L52 18 L57 16 L61 15 L65 13 L70 13 L74 11 L78 10 L83 12 L87 10 L91 8 L96 3 L100 3" stroke="rgba(240, 185, 10, 1)" fill="none" stroke-width="1"></path><path d="M0 28 L0 18 L4 1 L9 4 L13 10 L17 15 L22 15 L26 23 L30 19 L35 18 L39 29 L43 24 L48 18 L52 18 L57 16 L61 15 L65 13 L70 13 L74 11 L78 10 L83 12 L87 10 L91 8 L96 3 L100 3 L100 28" fill="url(#linear)" stroke="none"></path></g></svg>