<?xml version="1.0" encoding="UTF-8"?>
<svg xmlns="http://www.w3.org/2000/svg" xmlns:xlink="http://www.w3.org/1999/xlink" width="100px" height="50px" viewBox="0 0 172 50" version="1.1">
<defs>
<linearGradient id="linear0" gradientUnits="userSpaceOnUse" x1="0" y1="0" x2="0" y2="1" gradientTransform="matrix(172,0,0,48.277344,0,1.722656)">
<stop offset="0" style="stop-color:rgb(94.117647%,72.54902%,3.921569%);stop-opacity:1;"/>
<stop offset="0.8" style="stop-color:rgb(94.117647%,72.54902%,3.921569%);stop-opacity:1;"/>
<stop offset="1" style="stop-color:rgb(100%,100%,100%);stop-opacity:1;"/>
</linearGradient>
</defs>
<g id="surface3">
<path style="fill:none;stroke-width:1;stroke-linecap:butt;stroke-linejoin:miter;stroke:rgb(94.117647%,72.54902%,3.921569%);stroke-opacity:1;stroke-miterlimit:4;" d="M 0 18.000391 L 3.999364 0.999141 L 9.000273 4.001094 L 12.999637 10.000469 L 16.999001 15.000703 L 21.999909 15.000703 L 25.999273 23.000625 L 30.000908 18.999531 L 34.999546 18.000391 L 38.99891 29 L 43.000545 23.999766 L 47.999182 18.000391 L 52.000818 18.000391 L 56.999455 15.999844 L 61.00109 15.000703 L 65.000454 13.000156 L 69.999092 13.000156 L 74.000727 10.999609 L 78.000091 10.000469 L 83.000999 12.001016 L 90.999727 7.999922 L 96.000636 2.999688 L 100 2.999688 " transform="matrix(1.72,0,0,1.724138,0,0)"/>
<path style=" stroke:none;fill-rule:nonzero;fill:url(#linear0);" d="M 0 48.277344 L 0 31.035156 L 6.878906 1.722656 L 15.480469 6.898438 L 22.359375 17.242188 L 29.238281 25.863281 L 37.839844 25.863281 L 44.71875 39.65625 L 51.601562 32.757812 L 60.199219 31.035156 L 67.078125 50 L 73.960938 41.378906 L 82.558594 31.035156 L 89.441406 31.035156 L 98.039062 27.585938 L 104.921875 25.863281 L 111.800781 22.414062 L 120.398438 22.414062 L 127.28125 18.964844 L 134.160156 17.242188 L 142.761719 20.691406 L 156.519531 13.792969 L 165.121094 5.171875 L 172 5.171875 L 172 48.277344 "/>
</g>
</svg>
