<svg version="1.1" xmlns="http://www.w3.org/2000/svg" png-width="100" png-height="40" png-kernel="nearest" png-fit="contain" png-position="top"><defs><linearGradient id="green" x1="0%" y1="0%" x2="0%" y2="100%"><stop offset="0%" style="stop-color: rgba(112, 168, 0, 0.2);"></stop><stop offset="80%" style="stop-color: rgba(240, 185, 11, 0.2);"></stop><stop offset="100%" style="stop-color: rgba(255, 255, 255, 0.2);"></stop></linearGradient></defs><defs><linearGradient id="red" x1="0%" y1="0%" x2="0%" y2="100%"><stop offset="0%" style="stop-color: rgba(234, 0, 112, 0.2);"></stop><stop offset="80%" style="stop-color: rgba(240, 185, 11, 0.2);"></stop><stop offset="100%" style="stop-color: rgba(255, 255, 255, 0.2);"></stop></linearGradient></defs><defs><linearGradient id="linear" x1="0%" y1="0%" x2="0%" y2="100%"><stop offset="0%" style="stop-color: rgba(240, 185, 10, .65);" /><stop offset="80%" style="stop-color: rgba(240, 185, 10, .05);" /><stop offset="100%" style="stop-color: rgba(255, 255, 255, 0);" /></linearGradient></defs><g><path d="M0 25 L4 10 L9 6 L13 15 L17 15 L22 18 L26 8 L30 5 L35 2 L39 15 L43 8 L48 7 L52 7 L57 29 L61 20 L65 20 L70 26 L74 20 L78 8 L83 9 L87 8 L91 3 L96 5 L100 1" stroke="rgba(240, 185, 10, 1)" fill="none" stroke-width="1"></path><path d="M0 28 L0 25 L4 10 L9 6 L13 15 L17 15 L22 18 L26 8 L30 5 L35 2 L39 15 L43 8 L48 7 L52 7 L57 29 L61 20 L65 20 L70 26 L74 20 L78 8 L83 9 L87 8 L91 3 L96 5 L100 1 L100 28" fill="url(#linear)" stroke="none"></path></g></svg>