<svg width="86" height="86" viewBox="0 0 86 86" fill="none" xmlns="http://www.w3.org/2000/svg">
<path d="M64.5956 59.2325L55.494 50.1308H48.2437V48.6378H56.1091L65.2108 57.7335H66.3156V48.6258H71.9594V14.0347H33.3131V27.1378H31.8201V12.5417H73.4524V50.1189H67.8087V59.2205L64.5956 59.2325Z" fill="black"/>
<path d="M46.1175 29.2101V65.2346H28.171L19.9592 73.4583H18.0362V65.2346H12.5955V29.2101H46.1175Z" fill="url(#paint0_linear)"/>
<path d="M49.7367 25.6447H48.2437V27.1378H49.7367V25.6447Z" fill="black"/>
<path d="M46.452 25.6447H44.959V27.1378H46.452V25.6447Z" fill="black"/>
<path d="M43.1673 25.6447H41.6742V27.1378H43.1673V25.6447Z" fill="black"/>
<path d="M39.8826 25.6447H38.3895V27.1378H39.8826V25.6447Z" fill="black"/>
<path d="M36.5978 25.6447H35.1047V27.1378H36.5978V25.6447Z" fill="black"/>
<path d="M30.0283 25.6447H28.5353V27.1378H30.0283V25.6447Z" fill="black"/>
<path d="M26.7437 25.6447H25.2506V27.1378H26.7437V25.6447Z" fill="black"/>
<path d="M23.4589 25.6447H21.9658V27.1378H23.4589V25.6447Z" fill="black"/>
<path d="M49.7367 58.4919H48.2437V59.985H49.7367V58.4919Z" fill="black"/>
<path d="M49.7367 55.2072H48.2437V56.7003H49.7367V55.2072Z" fill="black"/>
<path d="M49.7367 51.9225H48.2437V53.4155H49.7367V51.9225Z" fill="black"/>
<path d="M49.7367 45.3531H48.2437V46.8461H49.7367V45.3531Z" fill="black"/>
<path d="M49.7367 42.0683H48.2437V43.5614H49.7367V42.0683Z" fill="black"/>
<path d="M49.7367 38.7836H48.2437V40.2767H49.7367V38.7836Z" fill="black"/>
<path d="M49.7367 35.4989H48.2437V36.9919H49.7367V35.4989Z" fill="black"/>
<path d="M49.7367 32.2142H48.2437V33.7072H49.7367V32.2142Z" fill="black"/>
<path d="M49.7367 28.9294H48.2437V30.4225H49.7367V28.9294Z" fill="black"/>
<path d="M49.7367 25.6447H48.2437V27.1378H49.7367V25.6447Z" fill="black"/>
<path d="M34.0716 42.7671C34.0716 43.9496 33.5938 44.8574 32.9369 45.8129L30.8765 48.7811C30.5719 49.235 30.4226 49.8382 30.4226 50.2383V51.2178H28.613V50.2085C28.613 49.229 28.8638 48.596 29.3954 47.8435L31.4319 44.8992C31.9097 44.1944 32.262 43.6151 32.262 42.7611C32.262 41.0769 31.0556 39.7929 29.3715 39.7929C27.5858 39.7929 26.4511 41.2024 26.4511 42.785H24.6415C24.6415 40.2169 26.6541 38.1804 29.3715 38.1804C32.0112 38.1924 34.0716 40.0796 34.0716 42.7671ZM30.6018 56.2524H28.4398V54.1382H30.6018V56.2524Z" fill="black"/>
<defs>
<linearGradient id="paint0_linear" x1="10.5786" y1="66.0007" x2="46.7431" y2="29.8362" gradientUnits="userSpaceOnUse">
<stop stop-color="#F0B90B"/>
<stop offset="0.2795" stop-color="#F1BC0F"/>
<stop offset="0.5691" stop-color="#F4C41C"/>
<stop offset="0.8624" stop-color="#F8D230"/>
<stop offset="0.9934" stop-color="#FBDA3C"/>
</linearGradient>
</defs>
</svg>
