<svg width="29" height="28" viewBox="0 0 29 28" fill="none" xmlns="http://www.w3.org/2000/svg">
<g clip-path="url(#clip0)">
<path d="M9.08882 11.7658L14.5265 6.32822L19.9669 11.7686L23.1309 8.60451L14.5265 0L5.92477 8.60171L9.08882 11.7658ZM3.69054 10.8357L6.85454 13.9997L3.69037 17.1639L0.526367 13.9999L3.69054 10.8357ZM9.08882 16.2342L14.5265 21.6716L19.9668 16.2314L23.1326 19.3939L23.1309 19.3955L14.5265 28L5.92466 19.3983L5.92023 19.3939L9.08882 16.2342ZM28.5267 14.0003L25.3627 17.1643L22.1987 14.0003L25.3627 10.8363L28.5267 14.0003Z" fill="#F0B90B"/>
<path d="M17.7357 13.9979H17.7372L14.5265 10.7871L12.1536 13.1599H12.1535L11.881 13.4325L11.3186 13.995L11.3142 13.9994L11.3186 14.0039L14.5265 17.2118L17.737 14.0011L17.7387 13.9994L17.7357 13.9979Z" fill="#F0B90B"/>
</g>
<defs>
<clipPath id="clip0">
<rect x="0.526367" width="28" height="28" fill="white"/>
</clipPath>
</defs>
</svg>
