<svg width="78" height="78" viewBox="0 0 78 78" fill="none" xmlns="http://www.w3.org/2000/svg">
<path fill-rule="evenodd" clip-rule="evenodd" d="M16.415 33.105C13.0041 33.1256 10.2499 35.8965 10.25 39.3075V44.835C10.25 48.2605 13.027 51.0375 16.4525 51.0375H20.375V33.105H16.415ZM55.6253 51.0375V33.105H59.5703C62.987 33.1174 65.7503 35.8907 65.7503 39.3075V44.835C65.7503 48.2605 62.9733 51.0375 59.5478 51.0375H55.6253ZM36.2094 71.1488C34.4512 70.4214 33.3047 68.7062 33.3047 66.8036C33.3027 65.5571 33.7965 64.361 34.6772 63.4789C35.5579 62.5968 36.7532 62.1011 37.9997 62.1011C39.9024 62.098 41.6194 63.2418 42.3496 64.9988C43.0798 66.7558 42.6793 68.7796 41.335 70.1261C39.9907 71.4725 37.9675 71.8763 36.2094 71.1488Z" fill="url(#paint0_linear)"/>
<path fill-rule="evenodd" clip-rule="evenodd" d="M20.375 30.855H14.5625V30.105L16.0175 28.98H20.375V30.855Z" fill="#162837"/>
<path fill-rule="evenodd" clip-rule="evenodd" d="M55.625 30.855H61.4375V30.105L59.9825 28.98H55.625V30.855Z" fill="#162837"/>
<path fill-rule="evenodd" clip-rule="evenodd" d="M38 10.6406C27.2304 10.6406 18.5 19.3711 18.5 30.1406H20.375C20.375 20.4066 28.266 12.5156 38 12.5156C47.734 12.5156 55.625 20.4066 55.625 30.1406H57.5C57.5 19.3711 48.7696 10.6406 38 10.6406Z" fill="#162837"/>
<path fill-rule="evenodd" clip-rule="evenodd" d="M38 6.70312C25.0705 6.70311 14.5832 17.1736 14.5625 30.1031H16.4375C16.4375 18.1945 26.0914 8.54063 38 8.54063C49.9086 8.54063 59.5625 18.1945 59.5625 30.1031H61.4375C61.4168 17.1736 50.9295 6.70311 38 6.70312Z" fill="#162837"/>
<path d="M22.3555 14.4961L24.5755 16.7161" stroke="#162837" stroke-width="2.5"/>
<path d="M53.9155 14.1836L51.043 17.0636" stroke="#162837" stroke-width="2.5"/>
<path fill-rule="evenodd" clip-rule="evenodd" d="M44.7492 54.285C41.0238 57.9552 35.0421 57.9552 31.3167 54.285L30.0117 55.59C34.4605 60.01 41.6429 60.01 46.0917 55.59L44.7492 54.285Z" fill="#162837"/>
<path fill-rule="evenodd" clip-rule="evenodd" d="M46.0487 55.6052C41.5999 60.0251 34.4176 60.0251 29.9688 55.6052L31.2513 54.2852C34.9767 57.9553 40.9583 57.9553 44.6838 54.2852L46.0487 55.6052Z" fill="#162837"/>
<path fill-rule="evenodd" clip-rule="evenodd" d="M30.5956 67.3359C29.9734 67.1168 29.3627 66.8665 28.7656 66.5859L29.5756 64.8984C30.1156 65.1534 30.6706 65.3934 31.2331 65.5959L30.5956 67.3359Z" fill="#162837"/>
<path fill-rule="evenodd" clip-rule="evenodd" d="M26.6906 65.4008C26.1356 65.0408 25.5956 64.6508 25.0781 64.2383L26.2481 62.7383C26.7148 63.1107 27.2004 63.4587 27.7031 63.7808L26.6906 65.4008Z" fill="#162837"/>
<path fill-rule="evenodd" clip-rule="evenodd" d="M23.375 62.7286C22.9175 62.2561 22.475 61.7611 22.0625 61.2286L23.5625 60.0586C23.9375 60.5236 24.3125 60.9736 24.755 61.4011L23.375 62.7286Z" fill="#162837"/>
<path fill-rule="evenodd" clip-rule="evenodd" d="M20.7494 59.3778C20.4027 58.8143 20.0848 58.2335 19.7969 57.6378L21.4994 56.8203C21.7573 57.361 22.0452 57.8868 22.3619 58.3953L20.7494 59.3778Z" fill="#162837"/>
<path fill-rule="evenodd" clip-rule="evenodd" d="M18.9736 55.6219C18.7636 54.9994 18.5836 54.3544 18.4336 53.7094L20.2636 53.2969C20.3962 53.8799 20.559 54.4557 20.7511 55.0219L18.9736 55.6219Z" fill="#162837"/>
<defs>
<linearGradient id="paint0_linear" x1="-2.48893" y1="36.9703" x2="16.5816" y2="76.8061" gradientUnits="userSpaceOnUse">
<stop stop-color="#F0B90B"/>
<stop offset="0.28" stop-color="#F1BC0F"/>
<stop offset="0.57" stop-color="#F4C41C"/>
<stop offset="0.86" stop-color="#F8D230"/>
<stop offset="0.99" stop-color="#FBDA3C"/>
</linearGradient>
</defs>
</svg>
